Coordinates
version=1
nRows=17
nColumns=36
inDegrees=yes

Units are S.I. units (second, meters, Newtons, ...)
If the header above contains a line with 'inDegrees', this indicates whether rotational values are in degrees (yes) or radians (no).

endheader
time	pelvis_tilt	pelvis_list	pelvis_rotation	pelvis_tx	pelvis_ty	pelvis_tz	hip_flexion_r	hip_adduction_r	hip_rotation_r	knee_angle_r	knee_angle_r_beta	ankle_angle_r	subtalar_angle_r	mtp_angle_r	hip_flexion_l	hip_adduction_l	hip_rotation_l	knee_angle_l	knee_angle_l_beta	ankle_angle_l	subtalar_angle_l	mtp_angle_l	lumbar_extension	lumbar_bending	lumbar_rotation	arm_flex_r	arm_add_r	arm_rot_r	elbow_flex_r	pro_sup_r	arm_flex_l	arm_add_l	arm_rot_l	elbow_flex_l	pro_sup_l
      0.00000000	      2.75495696	      0.37896000	     13.62150875	      0.03972936	      1.22288339	      0.08266658	     -1.91183227	     -1.87658797	      3.26236088	      6.63884362	      0.11586968	      3.39413705	    -19.05783020	     -6.25448699	     -0.23592279	      0.72170695	      6.60146984	     10.22825593	      0.17851674	      9.64006639	     -8.42536145	     -6.25448699	    -12.17488312	     -0.37775040	     -3.55331958	      3.18298127	     -8.43360029	     13.77538185	     22.97374402	     76.60346619	      2.27294625	     -9.27025874	     10.50126122	     27.85727213	     73.68740267
      0.01666670	      0.42654832	     -0.84201859	     13.27088228	      0.04293177	      1.22020843	      0.08287691	      0.41446449	     -1.27625028	      3.14784625	      6.44849938	      0.11254755	      5.47328122	    -15.45322780	     -6.85371921	      2.18171220	      0.42208047	      6.69759879	      9.55155521	      0.16670609	      9.39977389	     -7.00907588	     -6.85371921	     -8.35494391	      0.59346495	     -3.73391365	      2.52955397	     -7.97254322	      9.54274973	     22.34684720	     82.47990612	      0.82369797	     -7.91323469	      4.36640303	     27.61677281	     79.05651126
      0.03333330	     -0.29074028	     -0.63637938	     12.90465374	      0.04317679	      1.21557725	      0.08362750	      0.50320997	     -1.81644327	      2.99893093	      5.83752113	      0.10188396	      6.15419757	    -14.49549342	     -7.00366128	      2.76339912	      0.68710659	      5.47800032	      9.26351709	      0.16167887	     10.26393479	     -4.83854852	     -7.00366128	     -7.25310331	     -0.06576638	     -3.70077446	      2.25006458	     -7.30367886	      7.09417957	     22.69782425	     80.67205697	      0.34267139	     -7.98299350	      3.03846544	     27.92593113	     77.42698282
      0.05000000	     -0.20468592	     -0.32824822	     12.18356152	      0.04307577	      1.21660264	      0.08475004	     -0.06474009	     -2.20776779	      2.71874697	      5.27655280	      0.09209322	      6.30822709	    -13.88279518	     -7.03223339	      2.01149577	      0.86593375	      4.74453402	      8.19342909	      0.14300231	     10.49029740	     -4.03454194	     -7.03223339	     -7.18988698	     -0.50711831	     -3.33998698	      2.14084238	     -7.18123055	      6.18762553	     23.25071446	     79.83325712	     -0.08411465	     -8.18603080	      2.22962749	     28.60141772	     76.50425358
      0.06666670	     -0.24086299	     -0.26488304	     11.73074971	      0.04325898	      1.21981749	      0.08503400	     -0.22650695	     -2.32386980	      2.55388213	      4.90113793	      0.08554099	      6.34224953	    -13.13808131	     -7.12613737	      1.59256058	      0.88679020	      3.93758926	      7.67008031	      0.13386816	     10.96627864	     -3.06804090	     -7.12613737	     -7.07854032	     -0.51683635	     -3.19718263	      1.98909149	     -7.06897057	      4.99439106	     23.76233509	     78.49594671	     -0.48651367	     -8.05669718	      0.94790856	     28.97425118	     74.89899991
      0.08333330	     -0.52305723	     -0.22527282	     11.29043194	      0.03648145	      1.21937137	      0.08879769	      0.34737282	     -2.36250921	      2.63365121	      4.71644847	      0.08231755	      6.09203790	    -13.00157471	     -7.22644721	      1.60716688	      0.92504030	      3.45113843	      7.13646390	      0.12455479	     10.85230933	     -2.63217514	     -7.22644721	     -6.90880678	     -0.58921284	     -3.35373391	      2.50638091	     -6.84519544	      3.36807846	     23.81252955	     83.91392999	     -0.83908818	     -7.87625033	     -2.16253748	     29.86441178	     77.09093829
      0.10000000	     -0.73530996	     -0.29288818	     10.97284376	      0.03639537	      1.21600846	      0.08918595	      0.87174799	     -2.29227580	      2.62159526	      4.61313976	      0.08051448	      5.95458538	    -12.67784145	     -7.23285249	      1.74269849	      0.83150053	      3.10623629	      6.86473468	      0.11981222	     10.79232923	     -2.25154770	     -7.23285249	     -6.73050878	     -0.51689128	     -3.14041356	      2.88278837	     -6.88015699	      3.66139914	     23.72691894	     83.30729271	     -0.53373091	     -8.02689222	     -1.84721805	     29.74424664	     76.50036971
      0.11666670	     -0.88786660	     -0.26808458	     10.79833248	      0.03643262	      1.21319408	      0.08937747	      1.30339122	     -2.30067651	      2.43594774	      4.71104985	      0.08222333	      5.93006579	    -12.45686957	     -7.26363747	      1.80966589	      0.85475537	      2.86034903	      6.72100525	      0.11730367	     10.70532113	     -2.03863778	     -7.26363747	     -6.74469693	     -0.58972636	     -3.05058648	      2.93390068	     -6.96571930	      3.84896312	     24.42961408	     82.18420579	     -0.49677855	     -8.15064796	     -1.88346269	     30.43518857	     75.50621205
      0.13333330	     -1.14758727	     -0.25888012	     10.59122755	      0.03646289	      1.21299521	      0.08949649	      1.85883999	     -2.26133654	      2.65660030	      4.74122670	      0.08275002	      5.85143599	    -12.41729839	     -7.28237456	      2.06094668	      0.86134168	      2.63714783	      6.63221054	      0.11575391	     10.60944481	     -1.98462198	     -7.28237456	     -6.48195630	     -0.60369273	     -2.91965110	      3.09377110	     -6.95324375	      4.20581922	     24.47224688	     81.68655153	     -0.44130702	     -8.17427970	     -1.89925617	     30.63109031	     74.87726717
      0.15000000	     -1.26883047	     -0.31453167	     10.69384365	      0.04342149	      1.21373419	      0.08644471	      1.83389442	     -2.21080422	      2.68807584	      4.39299363	      0.07667220	      5.54986317	    -12.16367588	     -7.28400014	      2.06706574	      0.78409383	      2.59779501	      6.53402327	      0.11404022	     10.58137298	     -1.82048311	     -7.28400014	     -6.13621503	     -0.52136054	     -2.95281292	      2.93713321	     -7.00562518	      4.32158895	     24.31625605	     81.82294087	     -0.58700741	     -8.04386440	     -1.88871214	     30.56364236	     74.89853868
      0.16666670	     -1.18502962	     -0.35490736	     10.73678912	      0.04326189	      1.21398449	      0.08627689	      1.62436322	     -2.13901938	      2.52634468	      4.38276719	      0.07649372	      5.60312952	    -11.89260088	     -7.30329889	      1.79477761	      0.69528895	      2.42849391	      6.34140277	      0.11067836	     10.76885265	     -1.34408442	     -7.30329889	     -6.07914996	     -0.40258017	     -3.03637885	      2.74160437	     -7.14347321	      4.58346324	     24.68032021	     80.83450498	     -0.91762173	     -7.93897204	     -2.02995751	     30.96652345	     73.85166310
      0.18333330	     -1.39739640	     -0.34881109	     10.78093688	      0.03668864	      1.21727576	      0.08279234	      1.78454730	     -2.27258534	      2.41845258	      4.22174018	      0.07368327	      5.47998229	    -11.72276473	     -7.30458523	      1.94606854	      0.83692006	      2.45761906	      6.06346784	      0.10582748	     10.70599806	     -1.25112760	     -7.30458523	     -5.78379332	     -0.30332492	     -3.07366455	      2.82381304	     -7.33254905	      4.68289410	     24.54390988	     80.98866122	     -0.88338137	     -7.71627059	     -2.02155981	     30.89143865	     73.88397203
      0.20000000	     -1.51844401	     -0.43841812	     10.72827175	      0.03649177	      1.21359113	      0.08950660	      1.95781706	     -2.16778756	      2.45062501	      4.26247675	      0.07439425	      5.54242160	    -11.51345621	     -7.33943407	      2.07940989	      0.74326473	      2.31666826	      5.97773315	      0.10433113	     10.89268163	     -1.08729057	     -7.33943407	     -5.50316379	     -0.23927143	     -3.43908056	      3.51016330	     -7.45623446	      6.45853784	     23.55721171	     83.26467628	     -0.98186310	     -7.73299277	     -2.44849363	     30.57237786	     74.33301010
      0.21666670	     -1.55386621	     -0.50143221	     10.76169136	      0.03654188	      1.21382126	      0.08951563	      2.15505458	     -2.10143961	      2.23128178	      4.36918781	      0.07625671	      5.72492884	    -11.41335777	     -7.35306296	      2.03127436	      0.67862354	      2.32814942	      5.65827481	      0.09875553	     10.77451809	     -1.08066602	     -7.35306296	     -5.56204627	     -0.14486123	     -3.47257441	      3.44929331	     -7.50725313	      6.36813785	     24.22376669	     82.06221288	     -1.10964852	     -7.77628971	     -2.58069372	     31.25934194	     73.37992208
      0.23333330	     -1.53666666	     -0.57565808	     10.66728082	      0.03659577	      1.21703629	      0.08939646	      2.19421080	     -1.99677759	      2.22163771	      4.38540314	      0.07653972	      5.66498159	    -11.37796711	     -7.36216727	      1.92218268	      0.55508539	      2.18131200	      5.31562704	      0.09277519	     10.79848499	     -0.72558290	     -7.36216727	     -5.59756252	     -0.06997421	     -3.38486468	      3.65674941	     -7.46919872	      6.51122970	     24.06509405	     81.77658424	     -0.98915207	     -7.74160015	     -2.66427931	     31.21701030	     73.06399460
      0.25000000	     -1.68898974	     -0.72615712	     10.59872830	      0.03650194	      1.21415283	      0.08939488	      2.46245819	     -1.86597187	      2.02470936	      4.54625316	      0.07934709	      5.56617336	    -11.37069425	     -7.42559202	      2.06353899	      0.39885610	      1.97945597	      5.12729978	      0.08948826	     10.74303087	     -0.28218686	     -7.42559202	     -5.35461939	      0.08196608	     -3.57136912	      4.18955627	     -7.59416034	      6.56753667	     23.55378509	     85.76582064	     -1.24270890	     -7.57213119	     -3.98355839	     31.32763703	     75.57148637
      0.26666670	     -1.57777517	     -0.82981599	     10.60636795	      0.03639680	      1.21668296	      0.08893317	      2.17147354	     -1.71218341	      1.97368175	      4.35836869	      0.07606788	      5.20274714	    -11.30571766	     -7.43250755	      1.85668538	      0.19358560	      1.77248346	      4.88372213	      0.08523703	     10.49637271	     -0.08091180	     -7.43250755	     -5.53602648	      0.23137926	     -3.50319467	      4.25484420	     -7.70162882	      6.51270848	     24.09693818	     84.53586895	     -1.43075721	     -7.50939379	     -3.91442042	     31.57312923	     74.66779577
